<mxfile host="app.diagrams.net" modified="2023-12-06T20:59:18.267Z" agent="Mozilla/5.0 (X11; Linux x86_64) AppleWebKit/537.36 (KHTML, like Gecko) Chrome/119.0.0.0 Safari/537.36" etag="_2OGKMY_RwIwC8Tg0lXj" version="22.1.7" type="device">
  <diagram name="Страница — 1" id="xlqUNGA1iSkhB0YVaB2y">
    <mxGraphModel dx="1493" dy="779" grid="1" gridSize="10" guides="1" tooltips="1" connect="1" arrows="1" fold="1" page="1" pageScale="1" pageWidth="827" pageHeight="1169" math="0" shadow="0">
      <root>
        <mxCell id="0" />
        <mxCell id="1" parent="0" />
        <mxCell id="VT5k-zCA0VbNP0Mbq7rP-20" style="edgeStyle=orthogonalEdgeStyle;rounded=0;orthogonalLoop=1;jettySize=auto;html=1;entryX=0.5;entryY=0;entryDx=0;entryDy=0;" edge="1" parent="1" source="VT5k-zCA0VbNP0Mbq7rP-1" target="VT5k-zCA0VbNP0Mbq7rP-4">
          <mxGeometry relative="1" as="geometry" />
        </mxCell>
        <mxCell id="VT5k-zCA0VbNP0Mbq7rP-1" value="comb_sort" style="ellipse;whiteSpace=wrap;html=1;" vertex="1" parent="1">
          <mxGeometry x="340" y="40" width="120" height="80" as="geometry" />
        </mxCell>
        <mxCell id="VT5k-zCA0VbNP0Mbq7rP-15" style="edgeStyle=orthogonalEdgeStyle;rounded=0;orthogonalLoop=1;jettySize=auto;html=1;entryX=0.5;entryY=0;entryDx=0;entryDy=0;" edge="1" parent="1" source="VT5k-zCA0VbNP0Mbq7rP-2" target="VT5k-zCA0VbNP0Mbq7rP-5">
          <mxGeometry relative="1" as="geometry" />
        </mxCell>
        <mxCell id="VT5k-zCA0VbNP0Mbq7rP-2" value="factor = 1.247&lt;br&gt;step = n - 1" style="rounded=0;whiteSpace=wrap;html=1;" vertex="1" parent="1">
          <mxGeometry x="340" y="220" width="120" height="60" as="geometry" />
        </mxCell>
        <mxCell id="VT5k-zCA0VbNP0Mbq7rP-21" style="edgeStyle=orthogonalEdgeStyle;rounded=0;orthogonalLoop=1;jettySize=auto;html=1;entryX=0.5;entryY=0;entryDx=0;entryDy=0;" edge="1" parent="1" source="VT5k-zCA0VbNP0Mbq7rP-4" target="VT5k-zCA0VbNP0Mbq7rP-2">
          <mxGeometry relative="1" as="geometry" />
        </mxCell>
        <mxCell id="VT5k-zCA0VbNP0Mbq7rP-4" value="arr&lt;br&gt;n&lt;br&gt;size" style="rounded=0;whiteSpace=wrap;html=1;" vertex="1" parent="1">
          <mxGeometry x="340" y="140" width="120" height="60" as="geometry" />
        </mxCell>
        <mxCell id="VT5k-zCA0VbNP0Mbq7rP-17" style="edgeStyle=orthogonalEdgeStyle;rounded=0;orthogonalLoop=1;jettySize=auto;html=1;entryX=0.5;entryY=0;entryDx=0;entryDy=0;" edge="1" parent="1" source="VT5k-zCA0VbNP0Mbq7rP-5" target="VT5k-zCA0VbNP0Mbq7rP-6">
          <mxGeometry relative="1" as="geometry" />
        </mxCell>
        <mxCell id="VT5k-zCA0VbNP0Mbq7rP-19" style="edgeStyle=orthogonalEdgeStyle;rounded=0;orthogonalLoop=1;jettySize=auto;html=1;entryX=0.5;entryY=0;entryDx=0;entryDy=0;" edge="1" parent="1" source="VT5k-zCA0VbNP0Mbq7rP-5" target="VT5k-zCA0VbNP0Mbq7rP-18">
          <mxGeometry relative="1" as="geometry" />
        </mxCell>
        <mxCell id="VT5k-zCA0VbNP0Mbq7rP-5" value="step &amp;gt;= 1" style="rhombus;whiteSpace=wrap;html=1;" vertex="1" parent="1">
          <mxGeometry x="360" y="300" width="80" height="80" as="geometry" />
        </mxCell>
        <mxCell id="VT5k-zCA0VbNP0Mbq7rP-14" style="edgeStyle=orthogonalEdgeStyle;rounded=0;orthogonalLoop=1;jettySize=auto;html=1;entryX=0.5;entryY=0;entryDx=0;entryDy=0;" edge="1" parent="1" source="VT5k-zCA0VbNP0Mbq7rP-6" target="VT5k-zCA0VbNP0Mbq7rP-7">
          <mxGeometry relative="1" as="geometry" />
        </mxCell>
        <mxCell id="VT5k-zCA0VbNP0Mbq7rP-16" style="edgeStyle=orthogonalEdgeStyle;rounded=0;orthogonalLoop=1;jettySize=auto;html=1;" edge="1" parent="1" source="VT5k-zCA0VbNP0Mbq7rP-6">
          <mxGeometry relative="1" as="geometry">
            <mxPoint x="400" y="290" as="targetPoint" />
            <Array as="points">
              <mxPoint x="650" y="440" />
              <mxPoint x="650" y="290" />
            </Array>
          </mxGeometry>
        </mxCell>
        <mxCell id="VT5k-zCA0VbNP0Mbq7rP-6" value="i = 0; i + step &amp;lt; n; i++" style="shape=hexagon;perimeter=hexagonPerimeter2;whiteSpace=wrap;html=1;fixedSize=1;" vertex="1" parent="1">
          <mxGeometry x="510" y="400" width="120" height="80" as="geometry" />
        </mxCell>
        <mxCell id="VT5k-zCA0VbNP0Mbq7rP-11" style="edgeStyle=orthogonalEdgeStyle;rounded=0;orthogonalLoop=1;jettySize=auto;html=1;entryX=0.5;entryY=0;entryDx=0;entryDy=0;" edge="1" parent="1" source="VT5k-zCA0VbNP0Mbq7rP-7" target="VT5k-zCA0VbNP0Mbq7rP-9">
          <mxGeometry relative="1" as="geometry" />
        </mxCell>
        <mxCell id="VT5k-zCA0VbNP0Mbq7rP-13" style="edgeStyle=orthogonalEdgeStyle;rounded=0;orthogonalLoop=1;jettySize=auto;html=1;entryX=0.5;entryY=0;entryDx=0;entryDy=0;" edge="1" parent="1" source="VT5k-zCA0VbNP0Mbq7rP-7" target="VT5k-zCA0VbNP0Mbq7rP-8">
          <mxGeometry relative="1" as="geometry" />
        </mxCell>
        <mxCell id="VT5k-zCA0VbNP0Mbq7rP-7" value="comparatopr&lt;br&gt;(arr+i*size,&lt;br&gt;&amp;nbsp;arr+(i+step)*size" style="rhombus;whiteSpace=wrap;html=1;" vertex="1" parent="1">
          <mxGeometry x="495" y="510" width="150" height="100" as="geometry" />
        </mxCell>
        <mxCell id="VT5k-zCA0VbNP0Mbq7rP-10" style="edgeStyle=orthogonalEdgeStyle;rounded=0;orthogonalLoop=1;jettySize=auto;html=1;entryX=0.5;entryY=0;entryDx=0;entryDy=0;" edge="1" parent="1" source="VT5k-zCA0VbNP0Mbq7rP-8" target="VT5k-zCA0VbNP0Mbq7rP-9">
          <mxGeometry relative="1" as="geometry">
            <Array as="points">
              <mxPoint x="740" y="740" />
              <mxPoint x="570" y="740" />
            </Array>
          </mxGeometry>
        </mxCell>
        <mxCell id="VT5k-zCA0VbNP0Mbq7rP-8" value="swap(arr+i*size, arr+(i+step)*size,&lt;br&gt;size)" style="shape=process;whiteSpace=wrap;html=1;backgroundOutline=1;" vertex="1" parent="1">
          <mxGeometry x="680" y="650" width="120" height="60" as="geometry" />
        </mxCell>
        <mxCell id="VT5k-zCA0VbNP0Mbq7rP-12" style="edgeStyle=orthogonalEdgeStyle;rounded=0;orthogonalLoop=1;jettySize=auto;html=1;entryX=0;entryY=0.5;entryDx=0;entryDy=0;" edge="1" parent="1" source="VT5k-zCA0VbNP0Mbq7rP-9" target="VT5k-zCA0VbNP0Mbq7rP-6">
          <mxGeometry relative="1" as="geometry">
            <Array as="points">
              <mxPoint x="570" y="840" />
              <mxPoint x="480" y="840" />
              <mxPoint x="480" y="440" />
            </Array>
          </mxGeometry>
        </mxCell>
        <mxCell id="VT5k-zCA0VbNP0Mbq7rP-9" value="step /= factor;" style="rounded=0;whiteSpace=wrap;html=1;" vertex="1" parent="1">
          <mxGeometry x="510" y="760" width="120" height="60" as="geometry" />
        </mxCell>
        <mxCell id="VT5k-zCA0VbNP0Mbq7rP-18" value="end" style="ellipse;whiteSpace=wrap;html=1;" vertex="1" parent="1">
          <mxGeometry x="200" y="400" width="120" height="80" as="geometry" />
        </mxCell>
        <mxCell id="VT5k-zCA0VbNP0Mbq7rP-22" value="1" style="text;html=1;strokeColor=none;fillColor=none;align=center;verticalAlign=middle;whiteSpace=wrap;rounded=0;" vertex="1" parent="1">
          <mxGeometry x="230" y="10" width="60" height="30" as="geometry" />
        </mxCell>
        <mxCell id="VT5k-zCA0VbNP0Mbq7rP-23" value="2" style="text;html=1;strokeColor=none;fillColor=none;align=center;verticalAlign=middle;whiteSpace=wrap;rounded=0;" vertex="1" parent="1">
          <mxGeometry x="370" y="10" width="60" height="30" as="geometry" />
        </mxCell>
        <mxCell id="VT5k-zCA0VbNP0Mbq7rP-24" value="3" style="text;html=1;strokeColor=none;fillColor=none;align=center;verticalAlign=middle;whiteSpace=wrap;rounded=0;" vertex="1" parent="1">
          <mxGeometry x="540" y="10" width="60" height="30" as="geometry" />
        </mxCell>
        <mxCell id="VT5k-zCA0VbNP0Mbq7rP-25" value="4" style="text;html=1;strokeColor=none;fillColor=none;align=center;verticalAlign=middle;whiteSpace=wrap;rounded=0;" vertex="1" parent="1">
          <mxGeometry x="710" y="10" width="60" height="30" as="geometry" />
        </mxCell>
        <mxCell id="VT5k-zCA0VbNP0Mbq7rP-26" value="A" style="text;html=1;strokeColor=none;fillColor=none;align=center;verticalAlign=middle;whiteSpace=wrap;rounded=0;" vertex="1" parent="1">
          <mxGeometry x="120" y="65" width="60" height="30" as="geometry" />
        </mxCell>
        <mxCell id="VT5k-zCA0VbNP0Mbq7rP-27" value="B" style="text;html=1;strokeColor=none;fillColor=none;align=center;verticalAlign=middle;whiteSpace=wrap;rounded=0;" vertex="1" parent="1">
          <mxGeometry x="120" y="155" width="60" height="30" as="geometry" />
        </mxCell>
        <mxCell id="VT5k-zCA0VbNP0Mbq7rP-28" value="C" style="text;html=1;strokeColor=none;fillColor=none;align=center;verticalAlign=middle;whiteSpace=wrap;rounded=0;" vertex="1" parent="1">
          <mxGeometry x="120" y="235" width="60" height="30" as="geometry" />
        </mxCell>
        <mxCell id="VT5k-zCA0VbNP0Mbq7rP-29" value="D" style="text;html=1;strokeColor=none;fillColor=none;align=center;verticalAlign=middle;whiteSpace=wrap;rounded=0;" vertex="1" parent="1">
          <mxGeometry x="120" y="325" width="60" height="30" as="geometry" />
        </mxCell>
        <mxCell id="VT5k-zCA0VbNP0Mbq7rP-30" value="E" style="text;html=1;strokeColor=none;fillColor=none;align=center;verticalAlign=middle;whiteSpace=wrap;rounded=0;" vertex="1" parent="1">
          <mxGeometry x="120" y="425" width="60" height="30" as="geometry" />
        </mxCell>
        <mxCell id="VT5k-zCA0VbNP0Mbq7rP-31" value="F" style="text;html=1;strokeColor=none;fillColor=none;align=center;verticalAlign=middle;whiteSpace=wrap;rounded=0;" vertex="1" parent="1">
          <mxGeometry x="120" y="545" width="60" height="30" as="geometry" />
        </mxCell>
        <mxCell id="VT5k-zCA0VbNP0Mbq7rP-32" value="G" style="text;html=1;strokeColor=none;fillColor=none;align=center;verticalAlign=middle;whiteSpace=wrap;rounded=0;" vertex="1" parent="1">
          <mxGeometry x="120" y="665" width="60" height="30" as="geometry" />
        </mxCell>
        <mxCell id="VT5k-zCA0VbNP0Mbq7rP-33" value="H" style="text;html=1;strokeColor=none;fillColor=none;align=center;verticalAlign=middle;whiteSpace=wrap;rounded=0;" vertex="1" parent="1">
          <mxGeometry x="120" y="775" width="60" height="30" as="geometry" />
        </mxCell>
      </root>
    </mxGraphModel>
  </diagram>
</mxfile>
